<svg xmlns="http://www.w3.org/2000/svg" xmlns:xlink="http://www.w3.org/1999/xlink" version="1.1" x="0px" y="0px" viewBox="0 0 95 118.75" enable-background="new 0 0 95 95" xml:space="preserve"><path d="M47.5,6.346C24.807,6.346,6.346,24.808,6.346,47.5c0,22.693,18.461,41.154,41.154,41.154  c22.692,0,41.154-18.461,41.154-41.154C88.654,24.808,70.192,6.346,47.5,6.346z M86.342,36.646c-1.955-5.28-5.345-10.118-10-14.152  c-0.688-0.596-1.396-1.167-2.121-1.714c-0.334-0.441-0.676-0.877-1.027-1.305c0.232-0.119,0.426-0.377,0.426-0.377l-0.345-1.24  l0.315-1.082C79.633,21.916,84.147,28.802,86.342,36.646z M29.185,20.657l0.384-0.109l0.965-1.104l0.069-0.62  c0,0,0.345-1.034,0.483-1.241c0.137-0.206,1.172-1.24,1.585-1.447s1.172,0,1.172,0s0.759,0.138,1.034,0.482  c0.04,0.051,0.067,0.098,0.087,0.142c-0.326,0.611-0.646,1.247-0.954,1.91c-0.1,0.213-0.197,0.429-0.295,0.646  c-0.398,0.104-0.793,0.216-1.188,0.329c-0.098-0.13-0.348-0.017-0.604,0.178c-0.947,0.287-1.88,0.601-2.795,0.939  C29.146,20.727,29.166,20.692,29.185,20.657z M29.707,15.446c0.082-0.286,0.527-0.232,0.877-0.142  c-0.327,0.13-0.652,0.264-0.977,0.4C29.651,15.606,29.687,15.518,29.707,15.446z M43.447,7.375c0.254-0.025,0.508-0.047,0.764-0.068  c-2.545,0.941-4.957,2.976-7.112,5.989c-0.472,0.106-0.94,0.219-1.405,0.34c-0.077-0.144-0.127-0.258-0.127-0.258  s-0.414-1.104,0-1.31c0.297-0.148,0.503-0.436,0.598-0.588C38.409,9.507,40.859,8.101,43.447,7.375z M30.74,24.683l0.346-0.689  c0,0,0.758-0.482,0.964-0.62c0.036-0.023,0.086-0.098,0.141-0.202c-0.2,0.575-0.394,1.159-0.579,1.754  c-0.146,0.037-0.291,0.075-0.438,0.113C30.975,24.802,30.74,24.683,30.74,24.683z M36.131,14.206  c-0.129-0.069-0.27-0.274-0.378-0.463c0.412-0.108,0.827-0.21,1.245-0.308c-0.182,0.258-0.361,0.521-0.539,0.792  C36.322,14.25,36.204,14.244,36.131,14.206z M64.657,30.193c-0.538-0.116-1.08-0.229-1.628-0.334  c0.117-0.208,0.232-0.452,0.215-0.592c-0.033-0.269,0.457-0.569,1.055-0.616C64.424,29.159,64.543,29.673,64.657,30.193z   M27.914,28.475c0,0,0.689-0.138,0.827-0.552c0.138-0.413,0.345-1.447,0.552-1.586c0.207-0.137,1.104,0,1.104,0  s0.391,0.235,0.672,0.44c-0.309,1.119-0.592,2.268-0.85,3.442c-1.063,0.232-2.104,0.487-3.121,0.763  c0.025-0.037,0.046-0.071,0.059-0.095c0.138-0.275,1.104-1.241,1.104-1.241L27.914,28.475z M31.168,26.852  c0.049,0.039,0.093,0.075,0.125,0.106c0.206,0.207,0.275,0.759,0.068,1.172c-0.207,0.414,0.551,0.896,0.551,0.896  s1.172-1.104,1.379-1.241s0.139,0.896,0.139,1.241c0,0.104,0.012,0.318,0.029,0.564c-1.057,0.18-2.096,0.381-3.117,0.603  C30.594,29.049,30.869,27.935,31.168,26.852z M34.131,24.462c-0.006,0.233,0.076,0.487,0.125,0.636  c0.069,0.206-0.413,0.896-0.689,1.239c-0.275,0.346-1.033-0.068-1.033-0.068s-0.564-0.458-0.961-0.82  c0.043-0.144,0.088-0.286,0.131-0.428C32.5,24.819,33.309,24.633,34.131,24.462z M38.841,14.241  c-0.069-0.069,0.215-0.737,0.452-1.277c0.342-0.061,0.685-0.118,1.029-0.172c-0.336,0.623-0.664,1.291-0.981,2.005  C39.197,14.634,38.916,14.316,38.841,14.241z M41.426,11.518c0.207,0,0.275-0.483,0.689-1.103c0.166-0.248,0.197-0.388,0.178-0.468  c1.039-1.309,2.145-2.235,3.295-2.729c0.211-0.01,0.422-0.017,0.634-0.023c-1.027,0.788-2.005,2.525-2.891,5.127  c-0.942,0.082-1.88,0.192-2.81,0.33c0.208-0.377,0.419-0.735,0.633-1.079C41.284,11.538,41.384,11.518,41.426,11.518z M49.412,7.219  c1.199,0.514,2.348,1.499,3.426,2.896c-0.153,0.219-0.835,1.205-1.141,1.816c-0.033,0.068-0.066,0.129-0.1,0.187  c-0.867-2.487-1.82-4.154-2.82-4.922C48.989,7.202,49.201,7.209,49.412,7.219z M61.313,28.647c0.036,0.124-0.058,0.496-0.179,0.874  c-0.473-0.078-0.947-0.15-1.425-0.221c-0.269-1.605-0.572-3.16-0.911-4.655c0.055-0.164,0.117-0.348,0.185-0.548  c0.987,0.175,1.958,0.371,2.912,0.588c-0.081,0.109-0.153,0.219-0.202,0.308c-0.173,0.311-0.725,2.172-0.828,2.517  S61.245,28.406,61.313,28.647z M87.827,47.5c0,0.112-0.003,0.224-0.003,0.337c-0.581,0.27-1.844,0.538-3.715,0.791  c-0.294-0.228-0.688-0.499-1.252-0.852c0-0.093,0.004-0.184,0.004-0.276c0-0.43-0.008-0.858-0.02-1.286  c2.574,0.298,4.278,0.623,4.982,0.95C87.824,47.276,87.827,47.388,87.827,47.5z M87.781,49.413  c-0.332,0.775-0.861,1.529-1.572,2.258c-0.015-0.035-0.028-0.067-0.043-0.104c-0.191-0.458-0.361-0.81-0.545-1.127  c1.012-0.533,1.746-1.09,2.184-1.662C87.799,48.99,87.791,49.202,87.781,49.413z M32.602,35.712c0,0,0.297-0.436,0.551-0.871  c0.463-0.058,0.929-0.114,1.398-0.166c-0.078,0.699-0.147,1.406-0.211,2.118c-0.152,0.127-0.291,0.214-0.359,0.206  c-0.207-0.022-0.689-0.253-1.103-0.528S32.602,35.712,32.602,35.712z M55.508,34.129c-0.085-0.006-0.172-0.011-0.256-0.017  c-0.031-0.453-0.064-0.904-0.1-1.352C55.439,33.174,55.522,33.687,55.508,34.129z M60.987,44.295  c0.005,0.197,0.009,0.394,0.013,0.59c-1.732-0.04-3.508-0.073-5.318-0.099c-0.01-0.817-0.026-1.631-0.047-2.439  c0.65-0.195,1.221-0.361,1.285-0.361c0.154,0,2.273,0.104,2.533,0.258c0.258,0.155,0.154,0.362,0.258,0.725s0.621,0.62,1.189,1.24  C60.93,44.24,60.958,44.269,60.987,44.295z M75.238,45.57c0.006,0.132,0.089,0.341,0.174,0.551c0.137,0.346,0.896,0.965,1.172,1.172  c0.152,0.115,0.455,0.165,0.74,0.175c0,0.011,0.001,0.022,0.001,0.032c0,0.6-0.012,1.196-0.03,1.792  c-1.619,0.117-3.4,0.227-5.332,0.325c0.022-0.703,0.033-1.408,0.033-2.117c0-0.708-0.011-1.414-0.033-2.116  C73.109,45.442,74.201,45.505,75.238,45.57z M69.414,69.421c0,0-0.07,0.758-0.275,0.964c-0.207,0.208-0.966,1.587-1.242,1.931  c-0.169,0.212-0.859,0.971-1.479,1.604c-0.104,0.04-0.207,0.079-0.312,0.119c0.899-1.743,1.702-3.591,2.403-5.529  c0.508-0.185,1.012-0.376,1.508-0.573c-0.115,0.105-0.189,0.174-0.189,0.174L69.414,69.421z M39.357,27.854  c-0.068-0.207-0.689-2.206-0.517-3.102c0.056-0.292,0.146-0.701,0.239-1.119c0.592-0.075,1.189-0.142,1.791-0.201  c-0.24,1.64-0.455,3.358-0.644,5.143c-0.05,0.069-0.093,0.128-0.126,0.173c-0.111,0.009-0.223,0.019-0.333,0.028  C39.577,28.541,39.404,27.994,39.357,27.854z M61.029,47.5c0,0.845-0.01,1.682-0.027,2.513c-1.71,0.04-3.484,0.074-5.319,0.098  c0.011-0.865,0.017-1.735,0.017-2.61c0-0.874-0.006-1.744-0.017-2.609c1.835,0.024,3.609,0.058,5.319,0.097  C61.02,45.819,61.029,46.656,61.029,47.5z M70.443,49.797c0.225,0.413,1.162,1.916,1.211,2.063c0.008,0.025,0.041,0.078,0.089,0.145  c-0.046,0.678-0.101,1.351-0.165,2.019c-1.676,0.245-3.449,0.466-5.307,0.659c0.127-1.555,0.213-3.133,0.258-4.728  C67.873,49.907,69.18,49.854,70.443,49.797z M22.828,62.688c0.686,0.245,1.383,0.479,2.096,0.7c0.357,1.402,0.759,2.771,1.209,4.101  c-0.545-0.478-1.113-1.308-1.113-1.308s-1.241-1.172-1.725-1.793c-0.482-0.62-0.414-1.034-0.414-1.034S22.867,63.048,22.828,62.688z   M22.814,62.563c-0.044-0.371-0.11-0.768-0.208-0.931c-0.207-0.346,0.069-0.828,0.069-0.828l1.033-2.068  c0,0-0.049-0.072-0.119-0.184c0.111,0.027,0.221,0.054,0.332,0.08c0.268,1.575,0.59,3.119,0.969,4.625  C24.182,63.035,23.49,62.804,22.814,62.563z M50.164,47.5c0,0.897-0.002,1.783-0.005,2.659c-0.547,0.002-1.097,0.004-1.651,0.005  l0.295-0.94c0,0,1.172-2,1.24-2.206c0.01-0.03,0.055-0.104,0.121-0.204C50.164,47.043,50.164,47.271,50.164,47.5z M73.826,54.324  l2.895-0.344c0,0-0.344,0.964-1.033,2.344c-0.236,0.473-0.497,0.854-0.738,1.153c-1.219,0.371-2.504,0.718-3.852,1.038  c0.241-1.443,0.434-2.913,0.579-4.402c0.707-0.105,1.397-0.215,2.073-0.329C73.377,54.042,73.826,54.324,73.826,54.324z   M70.979,58.543c-1.666,0.394-3.426,0.744-5.263,1.052c0.227-1.57,0.408-3.176,0.545-4.806c1.842-0.191,3.616-0.412,5.306-0.66  C71.42,55.629,71.223,57.103,70.979,58.543z M65.603,59.614c-1.657,0.274-3.378,0.514-5.153,0.712  c0.182-1.655,0.328-3.351,0.438-5.074c1.808-0.126,3.566-0.276,5.268-0.452C66.016,56.44,65.83,58.048,65.603,59.614z   M22.951,57.357c-0.07-0.345-0.414,0.275-0.414,0.275s-0.551,0.138-0.758,0c-0.207-0.139-1.586-0.759-2.275-1.447  c-0.314-0.315-0.731-0.587-1.281-0.868c-0.102-0.712-0.188-1.431-0.262-2.152c0.146,0.03,0.295,0.061,0.443,0.091  c-0.011,0.107,0.004,0.196,0.066,0.241c0.275,0.207,1.998,0.413,1.998,0.413l0.207,1.31c0,0,0.139,0.483,0.414,0.689  c0.275,0.207,0.689,0.276,1.104,0.482c0.413,0.207,1.24,0.415,1.24,0.415l0.195-0.092c0.084,0.604,0.174,1.205,0.273,1.801  c-0.133-0.032-0.266-0.064-0.396-0.097C23.297,58.086,22.996,57.579,22.951,57.357z M18.11,55.261  c-0.637-0.317-1.442-0.65-2.467-1.074c-1.999-0.828-2.274-0.759-2.274-0.759s-0.387-0.201-0.803-0.413  c-0.051-0.435-0.098-0.87-0.137-1.309c1.523,0.513,3.338,0.994,5.426,1.436C17.928,53.853,18.012,54.56,18.11,55.261z M24.4,52.877  v-0.482l1.171-0.482h1.171v0.482l-0.965,0.482H24.4z M23.248,51.868c-0.026-0.41-0.051-0.823-0.07-1.239  c0.469,0.247,1.17,0.681,1.221,0.731C24.455,51.418,23.572,51.749,23.248,51.868z M23.146,51.905  c-0.012,0.005-0.018,0.007-0.018,0.007l-1.143-0.552c0,0-1.449-0.551-1.654-0.551v-0.759h0.965c0,0,1.24,0.345,1.516,0.413  c0.055,0.014,0.146,0.055,0.26,0.111C23.092,51.021,23.117,51.464,23.146,51.905z M59.763,61.286c-0.22-0.259-0.356-0.5-0.44-0.73  c0.336-0.034,0.671-0.069,1.004-0.106c-0.051,0.458-0.105,0.91-0.162,1.36C60.045,61.64,59.912,61.463,59.763,61.286z   M49.697,55.979c0,0-0.06-0.11-0.154-0.288c0.189-0.002,0.378-0.005,0.566-0.007c-0.002,0.21-0.006,0.419-0.008,0.627  C49.871,56.122,49.697,55.979,49.697,55.979z M18.814,51.706v0.551c0,0-0.313,0.524-0.395,0.9c-0.157-0.032-0.314-0.063-0.469-0.097  c-0.073-0.731-0.131-1.466-0.176-2.207C18.03,50.866,18.814,51.706,18.814,51.706z M23.731,56.668l0.598-0.276  c0,0,0.69-0.62,0.966-0.757c0.275-0.139,1.033,0.137,1.24,0.137s1.034,0.069,1.449,0.276c0.307,0.153,0.615,0.23,0.895,0.261  c0.113,1.11,0.248,2.206,0.405,3.286c-1.839-0.308-3.599-0.658-5.265-1.052C23.916,57.925,23.818,57.3,23.731,56.668z   M28.988,56.317c0.058,0.004,0.113,0.006,0.167,0.006c0.345,0,1.241-0.207,1.241-0.207s0,0,0.068,0.207s0.068,0.345,0.275,0.551  c0.207,0.207,1.379,1.035,1.654,1.241c0.276,0.207,0.414,0.276,1.172,0.483c0.759,0.206,0.552,0.275,0.827,0.482  c0.012,0.008,0.021,0.017,0.03,0.023c0.041,0.409,0.082,0.817,0.127,1.222c-1.775-0.198-3.496-0.438-5.154-0.712  C29.239,58.534,29.104,57.434,28.988,56.317z M34.543,59.208c0.16,0.159,0.239,0.348,0.402,0.838c0,0,0.284,0.169,0.67,0.395  c-0.318-0.032-0.637-0.066-0.953-0.102C34.621,59.964,34.58,59.587,34.543,59.208z M61.072,63.217  c-0.154-0.104-0.388-0.635-0.815-1.271c0.063-0.499,0.123-1.002,0.18-1.509c1.765-0.196,3.483-0.433,5.149-0.708  c-0.252,1.704-0.553,3.357-0.901,4.955c-1.192,0.262-2.415,0.495-3.665,0.7c0.021-0.08,0.039-0.159,0.053-0.237  C61.21,64.388,61.279,63.354,61.072,63.217z M60.338,60.339c-0.348,0.038-0.698,0.075-1.051,0.11  c-0.158-0.525-0.053-1.001-0.006-1.507c0.068-0.758-0.828-0.896-1.035-1.11c-0.207-0.215-1.172-0.544-1.379-0.612  c-0.158-0.053-0.916,0.216-1.42,0.406c0.035-0.688,0.066-1.384,0.096-2.084c1.781-0.07,3.529-0.166,5.238-0.282  C60.669,56.994,60.521,58.689,60.338,60.339z M55.34,57.667c-0.109,0.042-0.203,0.079-0.264,0.104c-0.346,0.139-1.793,0-2.139,0  c-0.344,0-1.447-0.413-1.679-0.551c-0.136-0.082-0.653-0.498-1.056-0.825c0.004-0.237,0.007-0.475,0.01-0.713  c1.766-0.022,3.51-0.068,5.225-0.135C55.408,56.26,55.377,56.968,55.34,57.667z M50.215,55.579c0.023-1.744,0.039-3.52,0.047-5.317  c1.797-0.008,3.572-0.023,5.316-0.047c-0.023,1.776-0.069,3.52-0.137,5.227C53.734,55.509,51.99,55.555,50.215,55.579z   M50.111,55.58c-0.209,0.002-0.416,0.005-0.625,0.008c-0.377-0.698-1.133-2.109-1.236-2.366c-0.137-0.346,0-2.241,0-2.241  l0.225-0.714c0.563,0,1.124-0.002,1.684-0.005C50.15,52.085,50.135,53.859,50.111,55.58z M50.389,25.373  c-0.117,0.086-0.328,0.27-0.537,0.453c-0.021-0.539-0.045-1.071-0.07-1.596l1.088,0.177C50.869,24.407,50.664,25.166,50.389,25.373z   M49.674,24.212c0.026,0.558,0.052,1.126,0.076,1.705c-0.248,0.223-0.465,0.42-0.465,0.42h-1.379c0,0-0.414-1.446-0.414-1.93  l1.689-0.275L49.674,24.212z M15.092,51.912c0.414,0.551,1.104,0.689,1.104,0.689s1.229-1.352,1.48-1.676  c0.044,0.708,0.1,1.412,0.17,2.111c-2.064-0.437-3.886-0.918-5.426-1.438c-0.076-0.886-0.127-1.78-0.154-2.681  c0.748,0.086,1.535,0.165,2.34,0.237c-0.043,0.641-0.064,1.353-0.064,1.585C14.541,51.153,14.679,51.36,15.092,51.912z   M12.311,51.562c-0.459-0.157-0.892-0.317-1.299-0.48c-0.139-0.379-0.343-0.915-0.47-1.166c-0.104-0.211-0.444-0.782-0.778-1.337  c0.718,0.119,1.53,0.227,2.398,0.328C12.188,49.797,12.236,50.683,12.311,51.562z M8.957,48.603c0,0,0.62,1.378,0.551,1.31  c-0.068-0.069-0.551,0-0.551,0S8.336,49.153,8.13,48.81c-0.073-0.122-0.206-0.366-0.349-0.651c0.313,0.092,0.687,0.18,1.107,0.263  C8.931,48.531,8.957,48.603,8.957,48.603z M12.321,51.669c0.038,0.431,0.083,0.859,0.132,1.287  c-0.393-0.198-0.781-0.393-0.877-0.426c-0.207-0.067-0.413-1.033-0.413-1.033s-0.042-0.118-0.105-0.292  C11.453,51.363,11.875,51.518,12.321,51.669z M24.039,58.661c1.68,0.396,3.438,0.745,5.262,1.049  c0.246,1.691,0.544,3.343,0.892,4.948c-1.8-0.396-3.528-0.852-5.172-1.361C24.64,61.795,24.311,60.247,24.039,58.661z   M29.414,59.729c1.666,0.275,3.386,0.512,5.148,0.708c0.197,1.764,0.434,3.484,0.709,5.149c-1.703-0.251-3.357-0.553-4.956-0.9  C29.967,63.086,29.664,61.433,29.414,59.729z M34.674,60.449c0.387,0.043,0.775,0.083,1.166,0.121  c0.67,0.39,1.518,0.873,1.795,0.992c0.482,0.206,0.896,0.345,1.379,0.413c0.305,0.044,0.609,0.114,0.826,0.184  c0.105,1.363,0.227,2.696,0.359,3.996c-1.64-0.14-3.246-0.324-4.813-0.552C35.111,63.945,34.873,62.226,34.674,60.449z   M39.95,62.195c0.073,0.027,0.131,0.053,0.165,0.074c0.139,0.089,2,1.567,2,1.567s-0.62,1.724-0.896,1.93  c-0.162,0.123-0.086,0.246-0.022,0.467c-0.298-0.021-0.595-0.044-0.89-0.069C40.174,64.88,40.055,63.556,39.95,62.195z   M41.223,66.341c0.027,0.139,0.041,0.308-0.004,0.528c-0.138,0.691-0.276,3.585-0.276,3.585s-0.046,0.016-0.118,0.039  c-0.186-1.351-0.354-2.761-0.506-4.222C40.619,66.296,40.92,66.319,41.223,66.341z M61.555,71.557c0-0.126-0.11-0.529-0.252-0.991  c0.658-0.142,1.31-0.294,1.953-0.456c-0.359,1.149-0.744,2.257-1.154,3.318C61.857,72.709,61.555,71.786,61.555,71.557z   M61.27,70.454c-0.24-0.772-0.541-1.653-0.541-1.653l-0.275-1.517v-0.415c0,0,0.346-0.693,0.535-1.367  c1.246-0.203,2.471-0.435,3.669-0.694c-0.396,1.8-0.852,3.527-1.361,5.172C62.629,70.149,61.953,70.307,61.27,70.454z M64.78,64.781  c1.785-0.391,3.511-0.843,5.165-1.354c-0.441,1.728-0.954,3.394-1.529,4.989c-1.596,0.575-3.262,1.087-4.989,1.529  C63.938,68.292,64.391,66.566,64.78,64.781z M64.807,64.658c0.348-1.605,0.646-3.257,0.893-4.948  c1.823-0.304,3.582-0.653,5.262-1.049c-0.272,1.586-0.602,3.134-0.981,4.636C68.335,63.807,66.607,64.263,64.807,64.658z   M71.076,58.632c1.3-0.309,2.552-0.643,3.75-1.004c-0.404,0.471-0.725,0.694-0.725,0.694s-1.724,2.206-1.999,2.55  c-0.157,0.198-0.247,1.004-0.335,1.839c-0.542,0.188-1.096,0.37-1.658,0.546C70.488,61.751,70.811,60.207,71.076,58.632z   M77.342,51.912c-0.025,0.01-0.057,0.025-0.09,0.042c0.066-0.848,0.115-1.699,0.145-2.557c0.802-0.058,1.616-0.121,2.42-0.19  c-0.227,0.291-0.574,0.794-0.752,1.325C78.789,51.36,77.824,51.704,77.342,51.912z M77.143,52.006  c-0.678,0.336-2.393,1.285-3.094,1.625c-0.762,0.131-1.552,0.256-2.361,0.376c0.059-0.621,0.109-1.245,0.152-1.873  c0.281,0.359,0.799,0.899,0.951,0.708c0.207-0.258,0.156-1.137,0-1.395c-0.088-0.147-0.49-0.84-0.842-1.451  c0.004-0.091,0.008-0.181,0.01-0.271c1.524-0.076,2.98-0.161,4.353-0.252c0.323-0.021,0.651-0.044,0.98-0.067  C77.263,50.277,77.213,51.145,77.143,52.006z M71.852,49.826c-0.018-0.031-0.035-0.063-0.053-0.094  c0.02-0.001,0.037-0.002,0.057-0.003C71.855,49.762,71.854,49.794,71.852,49.826z M66.164,54.693  c-1.691,0.175-3.451,0.326-5.271,0.452c0.104-1.652,0.175-3.332,0.21-5.031c1.827-0.044,3.604-0.095,5.321-0.155  C66.381,51.563,66.293,53.144,66.164,54.693z M60.787,55.153c-1.699,0.117-3.449,0.213-5.241,0.284  c0.067-1.714,0.112-3.458,0.136-5.225c1.811-0.024,3.586-0.057,5.318-0.097C60.963,51.825,60.893,53.507,60.787,55.153z   M55.596,47.5c0,0.878-0.006,1.748-0.018,2.611c-1.72,0.023-3.494,0.039-5.316,0.047c0.004-0.881,0.006-1.767,0.006-2.658  c0-0.28,0-0.56,0-0.839c0.303-0.439,0.856-1.191,1.324-1.812c1.357,0.009,2.688,0.021,3.986,0.039  C55.59,45.753,55.596,46.623,55.596,47.5z M51.379,34.034c0.232,0.007,0.465,0.015,0.697,0.023c-0.286,0.179-0.6,0.346-0.6,0.346  S51.438,34.25,51.379,34.034z M51.35,33.928c-0.135-0.484-0.347-1.185-0.48-1.317c-0.205-0.207,0.828-0.482,1.242-0.688l0.412,0.481  c0,0,0.139,1.104,0,1.31c-0.041,0.064-0.156,0.153-0.294,0.245C51.938,33.947,51.645,33.938,51.35,33.928z M53.076,30.956  c-0.068-0.481,0.551-1.31,0.551-1.31s0.553,0.275,0.664,0.482s0.164,0.896,0.22,1.103s0.013,0.828,0.495,1.345  c0.012,0.012,0.02,0.024,0.029,0.037c0.039,0.493,0.075,0.991,0.11,1.493c-0.669-0.042-1.341-0.079-2.019-0.109  c0.107-0.56,0.346-1.473,0.5-1.731C53.834,31.922,53.145,31.438,53.076,30.956z M45.361,23.5c0.006-0.12,0.011-0.241,0.017-0.359  c0.439-0.014,0.88-0.022,1.322-0.027C46.296,23.226,45.758,23.349,45.361,23.5z M45.251,23.544c-0.128,0.055-0.235,0.112-0.31,0.175  c-0.414,0.345-1.999,1.517-2.344,1.723c-0.28,0.168-1.61,2.072-2.246,2.96c0.186-1.738,0.395-3.401,0.626-4.979  c1.408-0.137,2.841-0.231,4.293-0.278C45.264,23.276,45.258,23.41,45.251,23.544z M39.999,28.864  c-0.038,0.024-0.077,0.026-0.116,0.01C39.922,28.87,39.961,28.867,39.999,28.864z M35.015,35.988c0,0.12-0.282,0.452-0.558,0.704  c0.057-0.63,0.12-1.254,0.188-1.872C34.825,35.324,35.015,35.88,35.015,35.988z M22.399,48.604c0,0.207-0.759,0.207-0.827,0  s-0.621-0.896-1.035-1.379c-0.412-0.482-0.551-0.689-1.172-1.034c-0.619-0.345-0.758,0.139-1.171,0.482  c-0.116,0.096-0.301,0.144-0.513,0.162c0.003-0.376,0.011-0.752,0.023-1.126c1.434-0.104,2.992-0.202,4.671-0.291  c-0.137,0.486-0.253,1.117-0.253,1.117S22.399,48.396,22.399,48.604z M17.577,46.843c-0.541,0.025-1.218-0.101-1.45-0.101  c-0.346,0-1.242,0.965-1.379,1.31c-0.057,0.139-0.1,0.537-0.134,0.988c-0.847-0.078-1.634-0.158-2.353-0.241  c-0.012-0.431-0.02-0.863-0.02-1.299c0-0.435,0.008-0.867,0.02-1.298c1.5-0.173,3.289-0.336,5.34-0.486  C17.589,46.092,17.582,46.467,17.577,46.843z M12.158,48.787c-0.943-0.11-1.77-0.223-2.473-0.338  c-0.293-0.483-0.567-0.934-0.66-1.088c-0.154-0.257-0.462-0.477-0.608-0.57c0.896-0.199,2.153-0.394,3.741-0.578  c-0.012,0.429-0.02,0.857-0.02,1.287C12.139,47.931,12.146,48.359,12.158,48.787z M8.475,47.431  c0.122,0.245,0.269,0.609,0.367,0.867c-0.445-0.087-0.819-0.176-1.121-0.265c-0.146-0.304-0.293-0.642-0.387-0.936  c0.246-0.097,0.578-0.191,0.994-0.287C8.32,46.917,8.328,47.138,8.475,47.431z M28.352,69.019c-0.797-1.04-1.207-0.982-1.816-1.253  c-0.073-0.033-0.15-0.08-0.229-0.138c-0.465-1.354-0.883-2.756-1.252-4.2c1.654,0.511,3.379,0.963,5.164,1.354  c0.391,1.785,0.843,3.511,1.354,5.165C30.473,69.665,29.399,69.354,28.352,69.019z M30.342,64.808  c1.605,0.348,3.258,0.646,4.947,0.893c0.305,1.823,0.654,3.581,1.051,5.261c-1.587-0.272-3.135-0.6-4.637-0.981  C31.193,68.336,30.738,66.607,30.342,64.808z M35.404,65.717c1.572,0.227,3.177,0.408,4.807,0.545  c0.152,1.469,0.324,2.892,0.513,4.265c-0.206,0.066-0.507,0.161-0.677,0.204c-0.176,0.044-0.549,0.369-0.849,0.651  c-0.926-0.115-1.84-0.25-2.741-0.401C36.064,69.313,35.713,67.555,35.404,65.717z M39.098,71.478  c-0.127,0.121-0.232,0.228-0.291,0.287c-0.208,0.207-0.414,1.379-0.414,1.379l-0.275,1.723c0,0-0.113,0.67-0.254,1.162  c-0.501-1.531-0.963-3.178-1.379-4.931C37.347,71.242,38.219,71.368,39.098,71.478z M62.382,74.246  c-0.038-0.118-0.124-0.361-0.224-0.654c0.441-1.131,0.852-2.304,1.229-3.516c1.712-0.436,3.374-0.939,4.977-1.515  c-0.714,1.961-1.524,3.813-2.42,5.539c-0.97,0.362-1.956,0.695-2.96,0.997C62.743,74.826,62.459,74.474,62.382,74.246z   M68.562,68.364c0.575-1.603,1.079-3.265,1.514-4.977c0.568-0.177,1.128-0.361,1.679-0.552c-0.061,0.584-0.121,1.167-0.203,1.552  c-0.207,0.966,0.207,1.655,0,1.999c-0.135,0.227-0.826,0.889-1.291,1.324C69.703,67.937,69.137,68.155,68.562,68.364z   M79.916,49.082c-0.789,0.069-1.629,0.137-2.518,0.202c0.02-0.593,0.03-1.188,0.03-1.784c0-0.009,0-0.019,0-0.027  c0.188,0,0.36-0.016,0.464-0.041c0.275-0.069,0.896,0,0.896,0l1.24,1.516C80.029,48.947,79.986,48.996,79.916,49.082z   M77.305,46.043c-0.783-0.189-1.217-0.334-1.479-0.436c0.504,0.033,0.993,0.067,1.469,0.102  C77.299,45.82,77.302,45.932,77.305,46.043z M71.893,47.5c0,0.712-0.011,1.42-0.033,2.122c-0.04,0.002-0.08,0.004-0.121,0.006  c-0.175-0.306-0.311-0.546-0.343-0.611c-0.103-0.206-0.827-1.499-0.981-1.81c-0.156-0.31-0.701-1.034-0.701-1.034  s-0.645-0.259-0.645,0s0,1.034,0,1.034c0.545,1.087,1.134,2.125,1.32,2.485c-1.231,0.057-2.519,0.109-3.856,0.157  c0.021-0.779,0.031-1.562,0.031-2.35c0-0.787-0.011-1.569-0.031-2.35c1.88,0.067,3.66,0.145,5.327,0.229  C71.882,46.081,71.893,46.789,71.893,47.5z M66.461,47.5c0,0.79-0.012,1.574-0.033,2.354c-1.693,0.061-3.469,0.113-5.322,0.156  c0.018-0.832,0.026-1.668,0.026-2.51c0-0.841-0.009-1.677-0.026-2.51c0.408,0.01,0.813,0.02,1.213,0.03  c0.199,0.117,0.495,0.118,0.495,0.118s0.001-0.04,0.005-0.104c1.24,0.034,2.445,0.071,3.609,0.113  C66.449,45.926,66.461,46.71,66.461,47.5z M62.824,44.93c0.024-0.402,0.102-1.241,0.299-1.083c0.259,0.207,1.861,0.62,2.844,0.775  c0.144,0.022,0.295,0.038,0.447,0.048c0.004,0.124,0.008,0.247,0.011,0.372C65.252,45,64.05,44.964,62.824,44.93z M61.104,44.887  c-0.004-0.165-0.006-0.331-0.011-0.496c0.499,0.408,0.962,0.317,1.1,0.52c0.001,0.002,0.002,0.002,0.003,0.003  C61.834,44.904,61.47,44.896,61.104,44.887z M55.578,40.444c-0.01-0.295-0.021-0.589-0.032-0.881c0.3,0.012,0.598,0.024,0.895,0.038  C56.101,39.889,55.752,40.224,55.578,40.444z M55.479,40.585c-0.234,0.335-0.947,1.05-0.968,1.296  c-0.021,0.259-1.419,1.248-0.901,1.087c0,0,1.017-0.316,1.924-0.591c0.02,0.796,0.033,1.6,0.045,2.408  c-1.287-0.017-2.592-0.03-3.91-0.039c0.242-0.32,0.453-0.597,0.581-0.762c0.483-0.62-0.138-1.655-0.534-1.999  c-0.396-0.345-0.363-0.482-0.5-0.965c-0.124-0.436,0.199-0.928,0.428-1.575c1.285,0.026,2.551,0.064,3.799,0.114  C55.455,39.899,55.467,40.241,55.479,40.585z M51.678,39.343c0.013-0.038,0.025-0.076,0.037-0.115  c0.223-0.758,1.355-0.483,1.355-0.483l1.221-0.413c0,0,0.302-1.103-0.802-1.792c0,0,0.827-0.447,1.021-0.517  c0.111-0.039,0.427-0.237,0.729-0.477c0.079,1.277,0.145,2.581,0.198,3.908C54.199,39.405,52.944,39.368,51.678,39.343z   M54.248,34.403c-0.207-0.069-1.178,1.103-1.178,1.103s0.006-0.827,0-1.103c0-0.057,0.014-0.164,0.038-0.303  c0.687,0.031,1.368,0.069,2.045,0.112c0.01,0.148,0.021,0.299,0.03,0.449C54.861,34.679,54.386,34.448,54.248,34.403z M55.258,34.22  c0.082,0.005,0.164,0.01,0.246,0.016c-0.004,0.057-0.008,0.114-0.016,0.168c-0.018,0.141-0.094,0.214-0.2,0.243  C55.278,34.504,55.269,34.361,55.258,34.22z M58.578,29.144c-0.008-0.006-0.016-0.012-0.021-0.014  c-0.014-0.005-0.03-0.002-0.051,0.005c-0.561-0.073-1.125-0.14-1.695-0.202c-0.176-0.574-0.356-1.285-0.356-1.285  s0.689-0.553,1.24-0.896c0.552-0.345,0.69-1.034,0.896-1.517c0.036-0.082,0.084-0.219,0.143-0.39  c0.317,1.419,0.605,2.901,0.862,4.438C59.258,29.235,58.918,29.188,58.578,29.144z M58.365,29.227  c-0.134,0.111-0.301,0.292-0.43,0.42c-0.206,0.207-0.689-0.034-0.827,0c-0.051,0.013-0.153-0.257-0.263-0.602  C57.356,29.102,57.863,29.162,58.365,29.227z M49.697,18.41c-0.068,0.087-0.146,0.19-0.223,0.301  c-0.002-0.008-0.002-0.015-0.002-0.022c-0.021-0.324-0.045-0.651-0.068-0.98c0.207,0.007,0.414,0.017,0.62,0.025  C49.938,18.016,49.836,18.239,49.697,18.41z M49.371,18.859c-0.193,0.29-0.363,0.591-0.363,0.723c0,0.207-0.275,1.586-0.344,1.792  c-0.068,0.208-1.104,1.38-1.517,1.586c-0.03,0.016-0.069,0.032-0.111,0.047c-0.554,0.004-1.104,0.013-1.653,0.03  c0.1-1.932,0.208-3.712,0.326-5.331c0.594-0.02,1.191-0.03,1.791-0.03s1.196,0.011,1.791,0.03  C49.318,18.082,49.346,18.466,49.371,18.859z M45.527,18.688c-0.092,1.373-0.176,2.828-0.252,4.352  c-1.443,0.047-2.872,0.139-4.283,0.273c0.285-1.925,0.602-3.719,0.947-5.362c1.207-0.119,2.427-0.202,3.656-0.243  C45.572,18.037,45.549,18.364,45.527,18.688z M41.688,18.682c-0.292,1.46-0.559,3.012-0.801,4.643  c-0.597,0.058-1.191,0.123-1.781,0.196c0.189-0.83,0.391-1.663,0.391-1.663s0.482-0.828,0.344-1.034  c-0.138-0.207,0.346-2.068,0.346-2.068s0.024-0.263,0.053-0.607c0.529-0.069,1.063-0.131,1.597-0.186  C41.785,18.198,41.736,18.438,41.688,18.682z M40.247,18.042c0.036-0.448,0.076-0.993,0.076-1.286c0-0.551-0.069-1.517-0.069-1.517  l-0.827-0.345c0,0-0.003-0.003-0.007-0.009c0.334-0.751,0.68-1.455,1.037-2.113c0.935-0.142,1.881-0.257,2.837-0.342  c-0.513,1.523-0.994,3.338-1.437,5.426C41.318,17.91,40.781,17.972,40.247,18.042z M25.02,41.228  c-0.759,0.965-1.311,2.688-1.586,3.171c-0.086,0.148-0.176,0.237-0.268,0.294c0.051-1.254,0.138-2.494,0.256-3.715  c0.677-0.099,1.368-0.194,2.076-0.285C25.342,40.846,25.182,41.021,25.02,41.228z M23.06,44.746  c-0.171,0.066-0.335,0.056-0.453,0.135c-0.063,0.042-0.132,0.212-0.198,0.428c-1.295,0.067-2.538,0.141-3.721,0.22  c-0.323,0.021-0.65,0.044-0.98,0.067c0.042-1.229,0.123-2.449,0.244-3.656c1.645-0.346,3.438-0.662,5.362-0.945  C23.195,42.23,23.109,43.482,23.06,44.746z M17.604,45.604c-1.807,0.13-3.672,0.289-5.338,0.479  c0.027-0.901,0.078-1.796,0.154-2.681c1.54-0.52,3.361-1.003,5.426-1.439C17.727,43.164,17.645,44.379,17.604,45.604z   M12.162,46.095c-2.156,0.249-3.965,0.552-4.856,0.911c-0.045-0.155-0.072-0.293-0.072-0.402c0-0.038-0.013-0.115-0.034-0.22  c0.738-1.061,2.512-2.056,5.111-2.944C12.236,44.318,12.188,45.204,12.162,46.095z M29.914,72.247  c-0.268-0.935-0.668-1.999-1.443-3.066c1.026,0.326,2.074,0.624,3.141,0.896c0.604,1.934,1.287,3.77,2.049,5.486  c-0.916-0.241-1.82-0.508-2.709-0.798C30.571,73.771,30.107,72.924,29.914,72.247z M31.743,70.109  c1.506,0.379,3.05,0.702,4.625,0.969c0.429,1.807,0.909,3.521,1.44,5.126c-0.035,0.102-0.07,0.188-0.105,0.248  c-0.002,0.002-0.002,0.004-0.003,0.006c-1.322-0.238-2.624-0.523-3.901-0.857C33.043,73.902,32.355,72.065,31.743,70.109z   M37.652,76.555c-0.209,0.464-0.5,1.689-0.5,1.689s-0.477,2.085-0.543,2.544c-0.994-1.499-1.916-3.198-2.756-5.067  C35.098,76.044,36.365,76.322,37.652,76.555z M65.484,74.798c-0.482,0.345-2.137,0.689-2.137,0.689s-0.126-0.126-0.287-0.304  c0.952-0.289,1.891-0.604,2.811-0.945c-0.076,0.146-0.152,0.289-0.229,0.432C65.582,74.722,65.527,74.767,65.484,74.798z   M66.035,74.177c0.07-0.027,0.139-0.054,0.209-0.079c-0.123,0.122-0.24,0.237-0.348,0.339C65.943,74.351,65.99,74.264,66.035,74.177  z M72.156,70.163v-0.775c0.222-0.259,1.049-2.224,1.256-2.327c0.066-0.033,0.213-0.162,0.385-0.328  c-0.471,1.198-0.988,2.364-1.551,3.497C72.191,70.188,72.156,70.163,72.156,70.163z M75.531,64.89  c0.021,0.057,0.027,0.149,0.023,0.264c-0.195,0.111-0.393,0.221-0.591,0.329C75.164,65.123,75.411,64.566,75.531,64.89z   M82.758,47.5c0,0.072-0.002,0.143-0.002,0.214c-1.547-0.954-1.49-0.629-1.691-0.697c-0.205-0.067-1.953-0.538-3.656-0.948  c-0.003-0.117-0.006-0.234-0.01-0.353c2.051,0.15,3.84,0.313,5.34,0.486C82.75,46.633,82.758,47.065,82.758,47.5z M77.396,45.604  c-0.041-1.225-0.123-2.439-0.242-3.641c2.063,0.437,3.886,0.92,5.425,1.439c0.077,0.885,0.128,1.779,0.154,2.681  C81.068,45.893,79.203,45.733,77.396,45.604z M77.292,45.596c-0.329-0.023-0.657-0.046-0.98-0.067  c-0.263-0.018-0.529-0.035-0.798-0.052c-0.07-0.029-0.116-0.045-0.172-0.045c-0.033,0-0.055,0.013-0.072,0.029  c-1.061-0.065-2.166-0.128-3.311-0.185c-0.045-1.443-0.138-2.872-0.271-4.282c1.923,0.283,3.717,0.601,5.361,0.945  C77.168,43.146,77.251,44.366,77.292,45.596z M71.855,45.271c-1.694-0.085-3.475-0.16-5.326-0.225  c-0.004-0.124-0.007-0.247-0.011-0.371c0.862,0.036,1.771-0.136,1.981-0.518c0.258-0.466,0.982-1.396,0.982-1.552  s0.518-0.775,0-0.62c-0.517,0.154-2.688,0.465-3.051,0.361c-0.006-0.001-0.012-0.005-0.018-0.007  c-0.041-0.679-0.088-1.353-0.143-2.021c1.857,0.192,3.631,0.413,5.307,0.659C71.715,42.387,71.809,43.817,71.855,45.271z   M66.305,42.28c-0.338-0.24-0.729-0.991-0.958-1.174c-0.2-0.16-0.71-0.724-0.931-0.969c0.591,0.054,1.174,0.11,1.748,0.17  C66.219,40.96,66.266,41.618,66.305,42.28z M64.209,40.589c0.104,0.207,0.154,1.448,0.154,1.448s-0.465,0.052-0.723-0.104  c-0.259-0.154-1.604-1.189-1.604-1.189s-0.672,1.035-0.827,1.086c-0.044,0.015-0.12,0.016-0.208,0.009  c-0.031-0.665-0.066-1.327-0.108-1.984c1.147,0.08,2.271,0.169,3.369,0.269C64.209,40.245,64.141,40.451,64.209,40.589z   M60.896,41.827c-0.203-0.028-0.44-0.09-0.564-0.152c-0.207-0.103-0.259-0.465-0.156-0.62c0.104-0.155,0.156-0.982-0.051-1.034  c-0.07-0.018-0.236-0.119-0.425-0.244c0.364,0.022,0.728,0.046,1.087,0.071C60.83,40.502,60.865,41.162,60.896,41.827z   M59.529,39.659c-0.32-0.224-0.646-0.466-0.646-0.466s-0.62,0-1.034,0s-0.414-0.311-0.879,0c-0.12,0.08-0.262,0.188-0.41,0.308  c-0.338-0.015-0.678-0.029-1.018-0.043c-0.055-1.353-0.123-2.685-0.203-3.994c0.188-0.157,0.359-0.324,0.459-0.475  c0.134-0.201,0.235-0.475,0.316-0.711c1.438,0.103,2.847,0.23,4.223,0.384c0.184,1.649,0.331,3.345,0.443,5.079  C60.366,39.713,59.949,39.685,59.529,39.659z M56.15,34.174c0.068-0.202,0.119-0.361,0.166-0.391  c0.104-0.07,0.896-0.896,1.103-1.207c0.207-0.311,0.689-1.724,0.689-1.724s0.448,0.38,0.517,0.552  c0.068,0.173,0.621,0.689,0.621,0.689s0.391,0,0.768-0.047c0.113,0.822,0.218,1.656,0.313,2.505  C58.959,34.401,57.564,34.275,56.15,34.174z M59.763,31.095c-0.104,0.034-0.517-0.724-0.552-0.897  c-0.026-0.132-0.338-0.672-0.527-0.93c0.311,0.042,0.621,0.085,0.93,0.13c0.09,0.545,0.178,1.096,0.26,1.653  C59.82,31.073,59.781,31.089,59.763,31.095z M59.729,29.414c0.46,0.068,0.917,0.141,1.371,0.216  c-0.107,0.318-0.228,0.625-0.303,0.775c-0.125,0.248-0.551,0.478-0.819,0.6C59.898,30.47,59.815,29.939,59.729,29.414z   M58.66,15.525c0,0-0.285-0.807-0.803-2.089c0.372,0.522,0.735,1.071,1.088,1.647C58.785,15.324,58.66,15.525,58.66,15.525z   M51.533,12.228c-0.017,0.027-0.033,0.054-0.049,0.078c-0.854-0.072-1.715-0.117-2.579-0.143c-0.262-2.266-0.582-4.146-0.966-4.984  c0.221,0.002,0.441,0.004,0.661,0.01C49.655,7.912,50.646,9.66,51.533,12.228z M51.416,12.407c-0.202,0.281-0.339,0.351-0.339,0.351  s-0.688,3.102-0.827,3.929c-0.063,0.369-0.124,0.68-0.197,0.945c-0.219-0.011-0.438-0.02-0.656-0.027  c-0.129-1.808-0.289-3.672-0.479-5.338C49.757,12.292,50.59,12.338,51.416,12.407z M49.283,17.602  c-0.593-0.019-1.187-0.029-1.783-0.029c-0.598,0-1.191,0.011-1.783,0.029c0.148-2.05,0.313-3.84,0.484-5.339  c0.432-0.011,0.863-0.02,1.299-0.02c0.434,0,0.867,0.009,1.299,0.02C48.971,13.762,49.134,15.552,49.283,17.602z M45.603,17.604  c-1.224,0.041-2.438,0.123-3.64,0.241c0.437-2.063,0.92-3.886,1.438-5.425c0.886-0.077,1.78-0.127,2.681-0.154  C45.892,13.933,45.732,15.797,45.603,17.604z M43.439,12.312c0.893-2.613,1.894-4.391,2.959-5.123  c0.221-0.006,0.441-0.008,0.662-0.01c-0.385,0.839-0.705,2.719-0.967,4.984C45.203,12.188,44.318,12.236,43.439,12.312z   M40.387,12.673c-0.348,0.053-0.694,0.109-1.04,0.17c0.097-0.217,0.179-0.402,0.218-0.499c0.099-0.248,0.905-0.564,1.432-0.725  C40.79,11.954,40.587,12.306,40.387,12.673z M34.808,24.339c0,0-0.006-0.006-0.015-0.013c0.04-0.007,0.08-0.015,0.12-0.022  L34.808,24.339z M33.469,29.701c0.04,0.545,0.098,1.186,0.098,1.186l0.621,1.792l0.138,1.272c0,0,0.103,0.27,0.228,0.614  c-0.447,0.05-0.891,0.102-1.332,0.157c0.189-0.335,0.335-0.647,0.277-0.733c-0.139-0.206-1.31,0.482-1.586,0.552  c-0.275,0.068-1.585,0.275-1.861,0.345c-0.13,0.032-0.168,0.171-0.171,0.311c-0.155,0.024-0.311,0.05-0.466,0.075  c0.25-1.703,0.553-3.356,0.901-4.956C31.344,30.092,32.395,29.887,33.469,29.701z M29.883,35.307c0.01,0.11,0.031,0.199,0.031,0.199  l0.344,0.621l1.104,0.872c0,0-0.621,0.988-0.828,0.918c-0.199-0.067-1.432,0.384-1.509,0.412c0.108-0.995,0.231-1.977,0.372-2.942  C29.559,35.359,29.72,35.333,29.883,35.307z M28.915,38.351c-0.291,0.056-1.118,0.226-1.346,0.396  c-0.275,0.206-1.034,1.172-1.034,1.172s-0.4,0.184-0.91,0.652c-0.746,0.097-1.477,0.196-2.192,0.302  c0.147-1.501,0.344-2.975,0.587-4.415c1.666-0.393,3.426-0.744,5.265-1.052C29.144,36.376,29.021,37.357,28.915,38.351z   M23.324,40.887c-1.631,0.242-3.184,0.509-4.643,0.802c-0.244,0.048-0.484,0.097-0.721,0.147c0.131-1.286,0.307-2.557,0.524-3.811  c1.666-0.563,3.478-1.079,5.417-1.54C23.661,37.928,23.469,39.397,23.324,40.887z M17.855,41.858  c-2.088,0.441-3.902,0.923-5.426,1.436c0.086-0.956,0.201-1.901,0.343-2.837c1.597-0.867,3.479-1.669,5.601-2.393  C18.158,39.313,17.984,40.578,17.855,41.858z M12.321,43.332c-2.6,0.885-4.339,1.863-5.127,2.891  c0.007-0.212,0.015-0.424,0.024-0.635c0.782-1.831,2.67-3.546,5.433-5.065C12.514,41.451,12.404,42.388,12.321,43.332z   M32.732,80.057c0.108,0.136,0.217,0.271,0.326,0.404c-0.055-0.018-0.109-0.036-0.164-0.054  C32.842,80.295,32.789,80.177,32.732,80.057z M32.502,79.566c-0.063-0.127-0.121-0.249-0.176-0.357  c-0.276-0.551-0.621-1.517-0.965-3.102c-0.093-0.427-0.222-0.834-0.364-1.219c0.893,0.289,1.798,0.555,2.718,0.797  c0.098,0.216,0.195,0.432,0.295,0.645c0.803,1.724,1.667,3.273,2.58,4.642c-0.016,0.12-0.052,0.296-0.094,0.475  c-1.094-0.267-2.168-0.572-3.224-0.915C33.012,80.219,32.754,79.896,32.502,79.566z M36.471,81.56  c-0.057,0.231-0.115,0.451-0.146,0.544c-0.069,0.208,0.207,0.828,0.207,0.828l0.896,0.62c0,0,0,0.606,0,1.005  c-1.415-1.074-2.758-2.366-4.012-3.853C34.42,81.023,35.438,81.31,36.471,81.56z M72.33,70.293c0.6-1.207,1.148-2.453,1.646-3.733  c0.336-0.331,0.713-0.724,0.832-0.843c0.008-0.009,0.016-0.02,0.024-0.03c0.239-0.13,0.477-0.262,0.712-0.396  c-0.076,0.755-0.488,2.163-0.529,2.287c-0.053,0.155-0.725,1.293-0.88,2.275c-0.013,0.079-0.027,0.153-0.043,0.224  c-0.368,0.233-0.743,0.46-1.12,0.684C72.75,70.603,72.496,70.415,72.33,70.293z M86.256,51.781c0.665-0.676,1.17-1.372,1.511-2.082  c-0.013,0.224-0.026,0.446-0.042,0.67c-0.259,0.79-0.622,1.563-1.083,2.319C86.539,52.438,86.414,52.153,86.256,51.781z   M87.812,48.601c-0.417,0.61-1.178,1.198-2.24,1.756c-0.133-0.223-0.276-0.431-0.44-0.65c-0.25-0.335-0.427-0.595-0.896-0.977  c1.626-0.226,2.929-0.488,3.587-0.789C87.82,48.16,87.818,48.381,87.812,48.601z M82.838,46.095  c-0.026-0.891-0.074-1.776-0.149-2.655c2.613,0.893,4.392,1.894,5.123,2.961c0.007,0.219,0.009,0.439,0.011,0.659  C86.983,46.677,85.103,46.356,82.838,46.095z M87.805,46.223c-0.787-1.027-2.525-2.005-5.127-2.891  c-0.082-0.944-0.191-1.881-0.33-2.81c2.764,1.521,4.65,3.234,5.434,5.065C87.791,45.799,87.799,46.011,87.805,46.223z   M82.569,43.294c-1.523-0.513-3.339-0.994-5.425-1.436c-0.129-1.28-0.303-2.546-0.518-3.794c2.122,0.724,4.004,1.525,5.6,2.393  C82.369,41.393,82.484,42.338,82.569,43.294z M77.038,41.836c-0.237-0.051-0.476-0.1-0.72-0.147c-1.46-0.293-3.012-0.56-4.642-0.802  c-0.146-1.489-0.338-2.959-0.579-4.401c1.939,0.461,3.75,0.977,5.416,1.54C76.732,39.279,76.907,40.55,77.038,41.836z   M71.567,40.872c-1.689-0.248-3.464-0.469-5.306-0.661c-0.029-0.354-0.062-0.707-0.096-1.059c0.035,0.088,0.06,0.145,0.06,0.145  l0.827-0.241c0.414-0.069,0.775,0.172,0.982,0c0.207-0.173,1.339,0.241,1.678,0.241c0.338,0,1.218-0.414,1.063-0.725  c-0.156-0.31-0.827-1.085-0.827-1.085s-1.12-0.775-1.025-0.931s-0.165-0.62-0.319-0.311c-0.154,0.311,0.104,1.137-0.051,1.473  c-0.156,0.337-1.086,0-1.086,0s-1.063-0.284-1.465-0.12c-0.086-0.737-0.182-1.469-0.285-2.193c1.837,0.308,3.597,0.659,5.263,1.052  C71.223,37.897,71.42,39.371,71.567,40.872z M65.9,37.666c-0.016,0.017-0.029,0.033-0.037,0.053  c-0.084,0.213,0.031,0.664,0.154,1.03c0.049,0.48,0.096,0.965,0.137,1.452c-0.605-0.063-1.221-0.122-1.84-0.179l-0.002-0.002  l-0.001,0.002c-1.12-0.102-2.263-0.193-3.425-0.273c-0.109-1.724-0.256-3.419-0.438-5.074c1.775,0.199,3.496,0.438,5.153,0.712  C65.712,36.138,65.811,36.898,65.9,37.666z M60.437,34.563c-0.095-0.854-0.2-1.698-0.313-2.532c0.166-0.024,0.322-0.061,0.432-0.109  c0.379-0.174,1.586-0.414,1.862-0.689c0.276-0.276,0.38-1,0.38-1s0.079-0.114,0.172-0.268c0.578,0.111,1.15,0.228,1.716,0.351  c0.349,1.6,0.649,3.253,0.901,4.956C63.92,34.996,62.201,34.76,60.437,34.563z M63.382,27.785c-1.275-0.586-0.827,0-0.965-0.104  s0-2.309,0.069-2.447c0.031-0.063,0.082-0.217,0.11-0.385c0.233,0.057,0.468,0.112,0.699,0.171c0.308,0.991,0.596,2.012,0.862,3.061  C63.934,28.013,63.674,27.92,63.382,27.785z M62.611,24.733c0.016-0.169,0.001-0.337-0.092-0.43  c-0.129-0.129-0.353,0.052-0.544,0.281c-0.971-0.221-1.956-0.418-2.954-0.594c0.297-0.852,0.7-1.901,1.154-2.479  c0.44-0.561,0.996-0.84,1.492-1.019c0.574,1.386,1.105,2.854,1.588,4.397C63.043,24.837,62.826,24.785,62.611,24.733z   M60.314,14.279c-0.207-0.271-0.552-0.143-0.758,0c-0.107,0.073-0.34,0.398-0.541,0.699c-0.332-0.539-0.668-1.054-1.014-1.543  c0.879,0.204,1.747,0.432,2.602,0.684C60.52,14.294,60.41,14.405,60.314,14.279z M52.902,10.018  c-1.021-1.315-2.095-2.251-3.203-2.783c0.223,0.012,0.447,0.025,0.67,0.041c1.082,0.354,2.135,0.907,3.149,1.639  C53.239,9.466,52.988,9.879,52.902,10.018z M47.836,7.178c0.326,0.702,0.652,2.406,0.951,4.98c-0.429-0.011-0.857-0.019-1.287-0.019  s-0.859,0.008-1.287,0.019c0.299-2.574,0.623-4.278,0.951-4.98c0.111-0.002,0.223-0.005,0.336-0.005  C47.611,7.173,47.723,7.176,47.836,7.178z M45.301,7.234c-1.064,0.512-2.098,1.394-3.08,2.626c-0.051-0.021-0.105-0.015-0.105-0.015  s-2.413,1.326-2.826,1.464c-0.414,0.139-0.827,0.759-1.311,1.034c-0.012,0.007-0.021,0.014-0.031,0.021  c2.021-2.539,4.278-4.302,6.684-5.089C44.854,7.26,45.076,7.246,45.301,7.234z M37.627,13.177c-0.119,0.026-0.238,0.054-0.358,0.08  c0.144-0.198,0.288-0.393,0.435-0.583C37.654,12.825,37.654,12.997,37.627,13.177z M37.605,13.299  c-0.021,0.096-0.055,0.19-0.109,0.286c-0.169,0.297-0.547,0.515-0.874,0.607c0.181-0.272,0.364-0.538,0.548-0.797  C37.314,13.362,37.46,13.331,37.605,13.299z M35.152,18.479c0.059,0.039,0.133,0.211,0.21,0.434  c-0.506,0.116-1.009,0.237-1.509,0.367c0.367-0.815,0.748-1.597,1.145-2.346c-0.01,0.15-0.121,0.235-0.121,0.235  S34.945,18.342,35.152,18.479z M35.396,19.013c0.187,0.572,0.377,1.396,0.377,1.396l-0.482,0.896l0.758,1.792l-0.207,0.896  l-0.13,0.044c-0.351,0.063-0.698,0.128-1.046,0.197c-0.153-0.101-0.389-0.214-0.479-0.033c-0.022,0.044-0.035,0.092-0.044,0.142  c-0.811,0.168-1.61,0.35-2.4,0.548c0.612-1.956,1.3-3.793,2.056-5.49C34.326,19.263,34.859,19.134,35.396,19.013z M32.809,21.306  c-0.063-0.188-0.125-1.216-0.238-1.566c0.361-0.104,0.725-0.205,1.09-0.303c-0.305,0.689-0.598,1.397-0.878,2.123  C32.811,21.437,32.822,21.344,32.809,21.306z M31.572,25.055c-0.031,0.102-0.062,0.205-0.094,0.308  c-0.092-0.087-0.17-0.165-0.222-0.225C31.363,25.109,31.467,25.081,31.572,25.055z M25.137,31.549  c-0.028,0.008-0.055,0.016-0.082,0.024c0.01-0.037,0.02-0.074,0.029-0.111C25.102,31.489,25.118,31.518,25.137,31.549z   M25.193,31.651c0.01,0.021,0.021,0.04,0.032,0.063c0.275,0.551-0.275,1.792-0.206,1.998c0.068,0.208,0.965-1.378,0.965-1.378  s0.676-0.767,1.007-1.205c1.039-0.284,2.107-0.546,3.201-0.787c-0.348,1.605-0.646,3.258-0.892,4.948  c-1.824,0.304-3.582,0.654-5.262,1.049c0.271-1.586,0.601-3.134,0.981-4.636C25.077,31.687,25.135,31.669,25.193,31.651z   M23.922,36.368c-1.852,0.439-3.607,0.934-5.246,1.479c-0.059,0.02-0.113,0.039-0.17,0.058c0.246-1.392,0.543-2.763,0.895-4.105  c1.697-0.756,3.533-1.444,5.49-2.056C24.512,33.249,24.189,34.794,23.922,36.368z M18.395,37.944  c-2.149,0.729-4.021,1.528-5.603,2.378c0.165-1.065,0.367-2.116,0.603-3.151c1.69-1.208,3.666-2.32,5.885-3.316  C18.933,35.193,18.638,36.558,18.395,37.944z M12.672,40.388c-2.752,1.5-4.598,3.164-5.439,4.913  c0.012-0.223,0.027-0.446,0.043-0.669c0.876-2.679,2.959-5.174,5.98-7.362C13.027,38.297,12.832,39.336,12.672,40.388z   M35.518,84.783l-0.71-0.887L33.98,82.38c0,0-0.689-1.033-0.827-1.378c-0.042-0.105-0.11-0.262-0.19-0.444  c0.079,0.027,0.16,0.052,0.24,0.078c1.33,1.599,2.744,2.961,4.225,4.073c0,0.066,0,0.121,0,0.153c0,0.191,0.831,0.86,0.949,1.396  C37.405,85.834,36.451,85.343,35.518,84.783z M73.412,71.041c-0.047-0.015-0.182-0.103-0.347-0.217  c0.334-0.197,0.665-0.397,0.991-0.604C73.87,70.899,73.545,71.087,73.412,71.041z M86.854,53.291  c-0.046-0.16-0.099-0.312-0.163-0.474c0.412-0.665,0.747-1.342,1.002-2.029c-0.021,0.256-0.043,0.511-0.068,0.765  c-0.188,0.665-0.416,1.322-0.691,1.969C86.894,53.41,86.866,53.331,86.854,53.291z M87.767,45.302  c-0.842-1.75-2.687-3.414-5.438-4.914c-0.16-1.052-0.355-2.091-0.585-3.118c3.022,2.188,5.106,4.685,5.981,7.363  C87.74,44.855,87.754,45.078,87.767,45.302z M82.208,40.322c-1.581-0.85-3.454-1.648-5.603-2.378  c-0.243-1.387-0.538-2.751-0.885-4.09c2.219,0.996,4.195,2.108,5.885,3.316C81.84,38.206,82.043,39.257,82.208,40.322z   M76.494,37.905c-0.057-0.019-0.112-0.038-0.17-0.058c-1.639-0.546-3.395-1.039-5.248-1.479c-0.266-1.574-0.588-3.119-0.967-4.624  c1.957,0.611,3.793,1.3,5.49,2.056C75.951,35.143,76.248,36.514,76.494,37.905z M70.961,36.34c-1.68-0.395-3.438-0.745-5.262-1.049  c-0.246-1.69-0.545-3.343-0.893-4.948c1.801,0.396,3.528,0.852,5.173,1.361C70.359,33.206,70.688,34.754,70.961,36.34z M64.78,30.22  c-0.116-0.531-0.238-1.057-0.364-1.577c0.55-0.03,0.559-0.038,0.724-0.236c0.125-0.15-0.187-0.102-0.854-0.287  c-0.264-1.046-0.551-2.067-0.858-3.064c1.728,0.442,3.394,0.954,4.989,1.53c0.575,1.595,1.088,3.261,1.529,4.988  C68.291,31.062,66.565,30.61,64.78,30.22z M63.388,24.925c-0.485-1.557-1.024-3.05-1.614-4.47c0.318-0.106,0.607-0.175,0.816-0.253  c0.551-0.208,1.102-0.069,1.102-0.069s0.553,0.689,1.379,0.965c0.472,0.157,0.828,0.204,1.114,0.277  c0.801,1.59,1.53,3.28,2.18,5.063C66.762,25.864,65.1,25.359,63.388,24.925z M60.738,12.344c-0.074,0.163-0.088,0.471-0.072,0.739  c-0.381-0.405-0.767-0.792-1.158-1.16c0.557-0.292,1.23-0.613,1.23-0.613S60.865,12.068,60.738,12.344z M60.682,13.278  c0.013,0.101,0.029,0.185,0.047,0.237c0.03,0.093-0.008,0.309-0.078,0.496c-0.904-0.268-1.822-0.506-2.75-0.716  c-0.063-0.09-0.127-0.181-0.191-0.27c0.108-0.059,0.896-0.489,1.089-0.683c0.068-0.069,0.307-0.206,0.593-0.359  C59.83,12.395,60.261,12.826,60.682,13.278z M53.572,8.81c-0.906-0.648-1.836-1.151-2.784-1.503  c0.255,0.021,0.511,0.043,0.765,0.068c0.779,0.219,1.547,0.499,2.299,0.838C53.76,8.422,53.665,8.622,53.572,8.81z M31.713,19.996  c-0.05,0.045-0.099,0.091-0.145,0.138c-0.346,0.345-0.759,2.137-0.759,2.343c0,0.207-1.448,0.69-1.448,0.69l-0.551,0.481  c0,0,0.551,0.69,0.551,0.896c0,0.207-1.033,0.276-1.24,0.276s-0.346-0.482-0.346-0.482v-0.75c0.405-0.926,0.832-1.824,1.281-2.688  C29.927,20.575,30.813,20.272,31.713,19.996z M24.054,30.197c0.495,0.645,0.741,0.861,0.942,1.137  c-0.023,0.093-0.048,0.186-0.072,0.279c-1.934,0.602-3.77,1.286-5.486,2.048c0.416-1.575,0.904-3.112,1.463-4.605  c0.664-0.345,1.35-0.677,2.051-0.995c-0.029,0.231-0.045,0.434-0.07,0.552C22.813,28.957,23.365,29.302,24.054,30.197z   M19.314,33.716c-0.217,0.097-0.432,0.194-0.645,0.295c-1.979,0.922-3.726,1.923-5.234,2.987c0.293-1.267,0.639-2.51,1.033-3.725  c1.828-1.521,3.941-2.913,6.293-4.145C20.21,30.616,19.727,32.147,19.314,33.716z M13.295,37.1  c-3.014,2.154-5.047,4.566-5.988,7.112c0.021-0.256,0.043-0.511,0.068-0.765c1.033-3.688,3.449-7.099,6.921-10.031  C13.912,34.622,13.578,35.851,13.295,37.1z M36.463,85.827c-0.283-0.112-0.656-0.641-0.783-0.828  c0.887,0.52,1.792,0.979,2.713,1.378c0,0.001,0,0.001,0,0.002c0,0.551-0.552,0-0.552,0S36.807,85.965,36.463,85.827z M87.176,54.16  c-0.072-0.186-0.135-0.349-0.186-0.485c0.215-0.498,0.404-1,0.566-1.508c-0.049,0.419-0.104,0.837-0.164,1.251  C87.324,53.667,87.252,53.914,87.176,54.16z M87.264,54.223c-0.006,0.039-0.013,0.077-0.019,0.117  c-0.003-0.009-0.007-0.018-0.011-0.026C87.244,54.283,87.254,54.254,87.264,54.223z M87.693,44.212  c-0.941-2.546-2.975-4.957-5.988-7.112c-0.283-1.248-0.617-2.477-1.002-3.684c3.472,2.933,5.889,6.344,6.922,10.032  C87.65,43.701,87.672,43.957,87.693,44.212z M81.564,36.998c-1.51-1.064-3.258-2.065-5.234-2.987  c-0.213-0.101-0.428-0.198-0.646-0.295c-0.411-1.568-0.896-3.1-1.446-4.587c2.352,1.231,4.465,2.623,6.293,4.145  C80.926,34.488,81.271,35.731,81.564,36.998z M75.563,33.661c-1.718-0.762-3.553-1.446-5.487-2.048  c-0.435-1.713-0.938-3.375-1.514-4.977c1.96,0.713,3.813,1.523,5.538,2.419C74.657,30.549,75.146,32.086,75.563,33.661z   M68.51,26.491c-0.641-1.77-1.365-3.462-2.171-5.07c0.147,0.051,0.274,0.117,0.387,0.229c0.345,0.345,1.654,1.31,1.654,1.31  l-0.212-1.161c1.163,0.504,2.295,1.053,3.391,1.644c0.936,1.734,1.764,3.557,2.479,5.452C72.295,27.994,70.447,27.192,68.51,26.491z   M68.146,21.676l-0.043-0.233l1.311,0.414c0,0,0.455-0.227,0.959-0.469c0.381,0.618,0.748,1.247,1.098,1.891  C70.396,22.703,69.285,22.168,68.146,21.676z M54.029,7.784c-0.043,0.108-0.086,0.217-0.132,0.322  c-0.57-0.255-1.147-0.476-1.729-0.662c0.418,0.049,0.836,0.103,1.25,0.164C53.623,7.664,53.826,7.723,54.029,7.784z M42.832,7.444  c-2.36,0.754-4.627,2.079-6.74,3.935h-0.525l0.537-1.503c1.762-0.994,3.596-1.754,5.477-2.268  C41.996,7.547,42.413,7.493,42.832,7.444z M25.709,20.479c0,0,1.24-1.103,1.377-1.311c0.139-0.206,1.174-1.31,1.449-1.653  c0.213-0.267,0.713-1.067,0.992-1.641c0.414-0.176,0.828-0.349,1.248-0.514c0.142,0.046,0.241,0.086,0.241,0.086s0.965,0,1.172,0  c0.206,0-1.103,0.896-1.311,0.965c-0.206,0.069-0.964,1.034-0.964,1.034s-0.828,1.792-0.828,1.999c0,0.17,0,0.896,0,1.15  c-0.04,0.077-0.082,0.152-0.121,0.229c-1.89,0.708-3.706,1.527-5.437,2.454c0.513-0.941,1.06-1.855,1.636-2.74  C25.406,20.554,25.709,20.479,25.709,20.479z M26.136,19.114c0.075-0.107,0.151-0.215,0.228-0.319  c-0.021,0.139-0.035,0.235-0.035,0.235L26.136,19.114z M28.893,20.962c-0.391,0.757-0.762,1.534-1.117,2.329v-0.124  c0,0-2.48,1.86-2.825,2.067s-1.034,1.034-1.517,1.517c-0.284,0.285-0.4,0.759-0.463,1.171c-0.684,0.311-1.354,0.635-2.009,0.972  c0.716-1.896,1.543-3.718,2.479-5.452C25.175,22.506,26.998,21.679,28.893,20.962z M20.824,28.964  c-0.74,0.386-1.461,0.788-2.16,1.207c-1.51,0.906-2.887,1.873-4.125,2.888c0.551-1.669,1.193-3.287,1.922-4.843  c0.717-0.619,1.47-1.22,2.262-1.8c1.434-1.052,2.956-2.016,4.555-2.887C22.352,25.259,21.533,27.076,20.824,28.964z M14.364,33.203  c-3.458,2.878-5.81,6.152-6.921,9.63c0.049-0.419,0.104-0.836,0.164-1.251c1.322-4.836,4.262-9.34,8.621-13.164  C15.517,29.966,14.895,31.564,14.364,33.203z M87.557,42.834c-1.111-3.479-3.463-6.753-6.922-9.631  c-0.531-1.639-1.152-3.237-1.863-4.785c4.359,3.825,7.299,8.328,8.621,13.165C87.453,41.998,87.508,42.415,87.557,42.834z   M80.461,33.059c-1.24-1.015-2.615-1.981-4.126-2.888c-0.699-0.419-1.42-0.821-2.159-1.207c-0.709-1.888-1.528-3.705-2.454-5.435  c1.599,0.871,3.122,1.835,4.556,2.887c0.792,0.58,1.545,1.181,2.262,1.8C79.268,29.771,79.91,31.39,80.461,33.059z M76.338,26.332  c-1.478-1.084-3.05-2.073-4.703-2.967c-0.372-0.688-0.762-1.363-1.168-2.022c0.545-0.26,1.118-0.521,1.222-0.521  c0.207,0,0.468-0.62,0.468-0.62s-1.984-0.346-2.26-0.346c-0.191,0-0.648-1.195-0.934-2.296c1.824,0.985,3.555,2.091,5.17,3.307  c1.641,2.182,3.082,4.565,4.295,7.115C77.763,27.416,77.066,26.866,76.338,26.332z M68.921,17.395  c-0.104-0.424-0.179-0.823-0.196-1.122c-0.025-0.4,0.068-0.765,0.197-1.066c0.311,0.275,0.619,0.554,0.92,0.842  c0.071,0.353,0.123,0.639,0.123,0.707c0,0.207,0,0.689,0.139,1.104c0.137,0.413,2.412,1.517,2.757,1.654  c0.07,0.027,0.144,0.027,0.214,0.008c0.269,0.326,0.531,0.659,0.791,0.996C72.298,19.363,70.646,18.321,68.921,17.395z   M68.977,15.087c0.221-0.462,0.506-0.753,0.506-0.753s0.179,0.817,0.318,1.505C69.528,15.582,69.254,15.333,68.977,15.087z   M38.101,8.281c0.882-0.211,1.773-0.393,2.676-0.545c-1.583,0.493-3.126,1.159-4.621,1.992l0.1-0.279c0,0,0.059-0.222,0.14-0.568  C36.957,8.665,37.525,8.465,38.101,8.281z M36.428,8.738c0.001-0.008,0.002-0.015,0.004-0.021c0.07-0.021,0.143-0.039,0.214-0.059  C36.572,8.686,36.5,8.71,36.428,8.738z M26.881,15.309c0,0,1.104-0.482,1.379-0.689s-0.275,0.965-0.484,1.24  c-0.1,0.135-0.38,0.563-0.649,0.991c-2.104,1.056-4.108,2.279-5.991,3.666c1.578-2.051,3.33-3.917,5.231-5.566  C26.604,15.13,26.881,15.309,26.881,15.309z M26.997,17.058c-0.233,0.374-0.432,0.711-0.462,0.801  c-0.037,0.11-0.092,0.436-0.137,0.715c-0.021,0.029-0.045,0.059-0.066,0.088c-0.128,0.175-0.254,0.354-0.38,0.531l-0.589,0.252  c0,0-0.826-0.138-1.172,0.069c-0.344,0.206,0.551,0.827,0.759,0.965c0.028,0.02,0.063,0.032,0.103,0.042  c-0.596,0.918-1.16,1.867-1.688,2.845c-1.652,0.894-3.226,1.883-4.705,2.967c-0.727,0.534-1.424,1.084-2.089,1.649  c1.214-2.549,2.655-4.934,4.295-7.115C22.764,19.439,24.816,18.164,26.997,17.058z M16.336,28.188  c-4.235,3.666-7.16,7.965-8.6,12.589c0.151-0.902,0.334-1.795,0.545-2.676c2.123-6.646,6.442-12.51,12.234-16.966  C18.898,23.331,17.5,25.693,16.336,28.188z M87.264,40.778c-1.439-4.625-4.365-8.924-8.6-12.59c-1.164-2.495-2.563-4.857-4.18-7.053  c5.791,4.457,10.111,10.32,12.234,16.967C86.93,38.983,87.111,39.876,87.264,40.778z M20.969,17.156l0.466,1.047l0.965,0.552  c0,0,0.702-0.759,0.729-1.103c0.028-0.345,0.305-1.447,0.305-1.447s0.096-0.631,0.046-1.078c0.798-0.593,1.616-1.156,2.458-1.69  c0.23,0.285,0.406,0.525,0.46,0.631c0.138,0.275-0.138,0.482-0.345,0.527c-0.084,0.019,0.039,0.141,0.213,0.28  c-1.32,1.148-2.582,2.409-3.772,3.783c-0.596,0.688-1.166,1.396-1.713,2.122c-0.727,0.547-1.436,1.118-2.122,1.714  c-4.654,4.034-8.043,8.872-10,14.15C10.799,28.993,15.146,22.253,20.969,17.156z"/><text x="0" y="110" fill="#000000" font-size="5px" font-weight="bold" font-family="'Helvetica Neue', Helvetica, Arial-Unicode, Arial, Sans-serif">Created by Guilherme Furtado</text><text x="0" y="115" fill="#000000" font-size="5px" font-weight="bold" font-family="'Helvetica Neue', Helvetica, Arial-Unicode, Arial, Sans-serif">from the Noun Project</text></svg>