<svg id="Layer_1" data-name="Layer 1" xmlns="http://www.w3.org/2000/svg" viewBox="0 0 273.72 35.09"><defs><style>.cls-1{fill:#231f20;}</style></defs><title>Untitled-1</title><path class="cls-1" d="M130,386.53a4.3,4.3,0,0,1-.07-3.06,4.73,4.73,0,0,1,1.45-2.05,5.61,5.61,0,0,1,2.26-1.13,7.64,7.64,0,0,1,2.78-.15,13.35,13.35,0,0,1,2.72.67,37.55,37.55,0,0,0,4,1.24,19.48,19.48,0,0,0,3.19.6,2.16,2.16,0,0,0,1.07-.2,1.19,1.19,0,0,0,.41-.36.94.94,0,0,0,.19-.51,1,1,0,0,0-.11-.57,1.27,1.27,0,0,0-.38-.45,2.77,2.77,0,0,0-1.09-.45,11.24,11.24,0,0,0-1.16-.2v-.69a8.69,8.69,0,0,1,1.35,0A6.4,6.4,0,0,1,149,380a4.37,4.37,0,0,1,1.79,1.75,3.67,3.67,0,0,1,.32,2.68,3.94,3.94,0,0,1-1.6,2.18,5.27,5.27,0,0,1-2.27.82c-.31,0-.62.05-.93.05v4.33l2.4,2.41-2.4,2.4V402c.25-.17.5-.35.73-.54a10.06,10.06,0,0,0,3-4.16h.69a9.55,9.55,0,0,1-1.08,4.77,10,10,0,0,1-3.74,3.92,10.86,10.86,0,0,1-5.21,1.51,11.79,11.79,0,0,1-9-3.76,11,11,0,0,1-2.74-9.3,10.15,10.15,0,0,1,8.3-8.19l.35.52a10.5,10.5,0,0,0-3.62,4.25l7.91-3.37v10.93l-6.33,2.66a7.57,7.57,0,0,0,1.69,1.29,8.33,8.33,0,0,0,5,1,8.92,8.92,0,0,0,3-.92v-6.09l-2.36-2.36,2.36-2.37v-4.43l-.49-.07c-1.61-.24-3.18-.7-4.76-1.06s-3.22-.84-4.85-1.17a4.61,4.61,0,0,0-2-.07,2.35,2.35,0,0,0-.91.41,1.8,1.8,0,0,0-.6.79,1.57,1.57,0,0,0,0,1.15,1.54,1.54,0,0,0,.77.84l-.34.52A4.14,4.14,0,0,1,130,386.53ZM133.56,398a8.49,8.49,0,0,0,1.36,2.53l2.36-1v-8.8l-3.74,1.58A9.4,9.4,0,0,0,133.56,398Z" transform="translate(-128.82 -379.2)"/><path class="cls-1" d="M161.07,404.55l1.11-.78.65.81-4.49,3.11-3.7-3.14-1.38.86-.61-.83,2.41-1.55V386.64a2.46,2.46,0,0,0,0-.54,1.33,1.33,0,0,0-.21-.49,1.82,1.82,0,0,0-.64-.53,5,5,0,0,0-.83-.34v-.52l5.87-4.14h.69v13.35l4.48-4.2,3.81,3.18,1.42-1.15.63.78-1.55,1.26v9.39a16.78,16.78,0,0,1-.18,2.92,7.83,7.83,0,0,1-1,2.73,7.19,7.19,0,0,1-3.13,2.72,7.84,7.84,0,0,1-4.3.6v-.87a4.48,4.48,0,0,0,2.1-1.12,5.71,5.71,0,0,0,1.37-2.29A13.51,13.51,0,0,0,164,403V394.4l-2.14-1.77-2,1.88v8.87Z" transform="translate(-128.82 -379.2)"/><path class="cls-1" d="M170.22,404.58l1.7-1.38v-9.49l8.63-4.48,3.62,5.52v.17l-7.77,4.83v1.55l4.32,2.94,4-3.11.51.87-7.42,6-5.34-4-1.59,1.29Zm10-8.11L177.09,392l-.69.39v6.49Z" transform="translate(-128.82 -379.2)"/><path class="cls-1" d="M192.63,392.63a3.44,3.44,0,0,1,1.35-1.07,5.33,5.33,0,0,1,2.14-.36V390a7.73,7.73,0,0,1,.14-1.73,4.27,4.27,0,0,1,.74-1.55,5.89,5.89,0,0,1,1.26-1.18c.47-.33,1-.62,1.46-.94.27-.18.55-.37.81-.56a7.39,7.39,0,0,1-1,.15,9.11,9.11,0,0,1-2.27-.16,14.54,14.54,0,0,0-2.26-.35,3.11,3.11,0,0,0-1.42.27,2.21,2.21,0,0,0-1.1,1.17h-.85a11.4,11.4,0,0,1,2.79-3.83,6,6,0,0,1,1.49-1,4.73,4.73,0,0,1,1.73-.39,7.35,7.35,0,0,1,2.18.34,13.77,13.77,0,0,0,2.16.5,4.91,4.91,0,0,0,2.25-.27,4.4,4.4,0,0,0,1.39-.87l-.06,1a14.61,14.61,0,0,1-1.74,1.69,10.29,10.29,0,0,1-.94.69l-.56.48a4.08,4.08,0,0,0-1,1.37,9.72,9.72,0,0,0-.63,3.82v7.86a10.13,10.13,0,0,1-.46,3.51,6.39,6.39,0,0,1-2.06,2.83,7,7,0,0,1-3.17,1.39h-1.18a3.84,3.84,0,0,0,1.57-1.55,6,6,0,0,0,.64-2.57c0-.89,0-1.78,0-2.67v-2.25H195a3.76,3.76,0,0,0-.58,0,1.74,1.74,0,0,0-.56.17,1.7,1.7,0,0,0-.78.85,1.93,1.93,0,0,0-.1,1h-.69a5.23,5.23,0,0,1-.37-3.07A3.9,3.9,0,0,1,192.63,392.63Zm16.61,10.17a22,22,0,0,1,4.34,1.67l1.17-.87.58.82-5.28,3.95a15.43,15.43,0,0,0-16.92.91v-.67a12.42,12.42,0,0,1,4-4.31,13.14,13.14,0,0,1,3.73-1.66,4.36,4.36,0,0,0,.71-1,6.73,6.73,0,0,0,.7-2.73c.07-.94,0-1.89,0-2.84v-5.37a28.08,28.08,0,0,1,.11-3.18,8.24,8.24,0,0,1,.9-3,7.53,7.53,0,0,1,2.33-2.5,13.45,13.45,0,0,1,5.09-1.89l.54-.11,0,.4-.78.36a8.46,8.46,0,0,0-1.66.94,4.51,4.51,0,0,0-1.24,1.44,5.29,5.29,0,0,0-.57,1.82,13.72,13.72,0,0,0-.09,1.92v9a6.82,6.82,0,0,1-.28,2.2,5.72,5.72,0,0,1-1.14,1.89,17.47,17.47,0,0,1-2.47,2.24A17.57,17.57,0,0,1,209.24,402.8Z" transform="translate(-128.82 -379.2)"/><path class="cls-1" d="M233.17,404.41l-5,3.44-2.75-2.75-3.8,2.76a6,6,0,0,1-3.84-2.06,4.28,4.28,0,0,1-1-2.9,4.23,4.23,0,0,1,.62-1.91,6.49,6.49,0,0,1,1.32-1.54,11.88,11.88,0,0,1,2.37-1.6c-.19-.07-.36-.15-.54-.23a4.9,4.9,0,0,1-2.09-1.7,2.83,2.83,0,0,1-.46-1.34,2.74,2.74,0,0,1,.24-1.3,3.15,3.15,0,0,1,.81-1,5.77,5.77,0,0,1,1.19-.77l4-2.07,5.31,3.43,1.46-1.18.63.78L229.72,394V403l1.73,1.73,1.55-1Zm-7.93-9.66L220.75,392a3.11,3.11,0,0,0-.75.43,2.44,2.44,0,0,0-.71.79,2,2,0,0,0-.27,1,2.29,2.29,0,0,0,.54,1.36,4.93,4.93,0,0,0,1.73,1.25,15.09,15.09,0,0,0,2,.75c.64.2,1.28.38,1.94.53Zm-2.13,3.78c-.47-.14-.94-.28-1.41-.44a4.29,4.29,0,0,0-.56,1.52,5.22,5.22,0,0,0,.58,3.19,4.33,4.33,0,0,0,.94,1.23,3,3,0,0,0,1.38.69,2.57,2.57,0,0,0,1.2-.07v-5.48Z" transform="translate(-128.82 -379.2)"/><path class="cls-1" d="M247,393.16a8.38,8.38,0,0,1-1,1.72,9.61,9.61,0,0,1-1.1,1.11l3.1,2.3v5.43l-7.1,4.32a3.42,3.42,0,0,0-1.65-1.47,2.76,2.76,0,0,0-1.1-.21,2,2,0,0,0-1,.33,1.35,1.35,0,0,0-.49.62,1.05,1.05,0,0,0,0,.78,1,1,0,0,0,.45.52l-.36.95a3.61,3.61,0,0,1-1.95-1.89,4,4,0,0,1-.09-2.73,8.47,8.47,0,0,1,2.33-3.34l.88-.84-2.72-2.15v-5l7.44-4.32a3.82,3.82,0,0,0,1.49,1.3,2.64,2.64,0,0,0,1.17.27,1.86,1.86,0,0,0,1.14-.38,1.66,1.66,0,0,0,.63-1.12h1A12.44,12.44,0,0,1,247,393.16Zm-7,7c-.81.7-1.61,1.42-2.37,2.16a13.39,13.39,0,0,0-1,1.09,4.09,4.09,0,0,1,2.15-.84,4.5,4.5,0,0,1,2.31.45,4.79,4.79,0,0,1,2.24,2.31v-4.69l-2-1.59Zm3.85-4.64a9.3,9.3,0,0,0,1.27-1.24l.33-.44a4,4,0,0,1-1.26.37,4.19,4.19,0,0,1-2.24-.31,4.31,4.31,0,0,1-2.23-2.31v4.69l1.48,1.52Z" transform="translate(-128.82 -379.2)"/><path class="cls-1" d="M256.5,407.69l-5.18-3.62V393.71l8.11-4.66,4.73,3.55,1.53-1.24.63.78-1.71,1.39v9.16a8.34,8.34,0,0,0,.08,1.41,5,5,0,0,0,.43,1.35,5.26,5.26,0,0,1,.44,1,1.91,1.91,0,0,1,0,1.06,2,2,0,0,1-.59.95,4.66,4.66,0,0,1-.9.59,8.64,8.64,0,0,0-.91.57l-6.66,4.7a4.49,4.49,0,0,0-2.78-1.89,4.55,4.55,0,0,0-3.62.81l-.52-.34a6.22,6.22,0,0,1,2.16-2.82,6.14,6.14,0,0,1,8,.74,1.45,1.45,0,0,0,1.18-.88,1.79,1.79,0,0,0,.15-.79,2.77,2.77,0,0,0-.16-.8c-.18-.51-.46-1-.68-1.48a5.74,5.74,0,0,1-.43-1.39v-.06Zm3.25-3.7,0-8.89-4.14-2.76v9.48l4.12,2.58Z" transform="translate(-128.82 -379.2)"/><path class="cls-1" d="M277.51,404.24l-5.17,3.62-3.45-3.1-1.21.86-.52-.69,2.24-1.55v-9.49l-1.2-1.56-1.38.87-.52-.69,4.83-3.28,2.76,3.28v10.87l1.21,1.2,1.55-1Zm-5.82-22.89,3.07,3.5-3.44,3-3.07-3.49Z" transform="translate(-128.82 -379.2)"/><path class="cls-1" d="M278.49,387.24l-.74.12v-6.45l12.42,10.92,1.33-1.08.63.78-1.53,1.25,0,10.2-7.89,4.67-5.2-3.57V393l4.39-2.7Zm3.65,15,3.81,2.65V394l-3.81-3.47Z" transform="translate(-128.82 -379.2)"/><path class="cls-1" d="M303.32,404.24l-5.17,3.62-3.45-3.1-1.21.86-.52-.69,2.24-1.55v-9.49l-1.2-1.56-1.38.87-.52-.69,4.83-3.28,2.76,3.28v10.87l1.21,1.2,1.55-1Zm-5.82-22.89,3.07,3.5-3.44,3-3.07-3.49Z" transform="translate(-128.82 -379.2)"/><path class="cls-1" d="M311,386.53a4.3,4.3,0,0,1-.07-3.06,4.65,4.65,0,0,1,1.45-2.05,5.63,5.63,0,0,1,2.25-1.13,7.7,7.7,0,0,1,2.79-.15,13.52,13.52,0,0,1,2.72.67,37.55,37.55,0,0,0,4,1.24,19.48,19.48,0,0,0,3.19.6,2.16,2.16,0,0,0,1.07-.2,1.29,1.29,0,0,0,.41-.36,1.13,1.13,0,0,0,.19-.51,1,1,0,0,0-.11-.57,1.27,1.27,0,0,0-.38-.45,2.77,2.77,0,0,0-1.09-.45,11.24,11.24,0,0,0-1.16-.2v-.69a8.69,8.69,0,0,1,1.35,0A6.46,6.46,0,0,1,330,380a4.37,4.37,0,0,1,1.79,1.75,3.72,3.72,0,0,1,.31,2.68,3.92,3.92,0,0,1-1.59,2.18,5.27,5.27,0,0,1-2.27.82c-.31,0-.62.05-.93.05v4.33l2.4,2.41-2.4,2.4V402c.25-.17.5-.35.73-.54a10.15,10.15,0,0,0,3-4.16h.69a9.65,9.65,0,0,1-1.08,4.77A10.07,10.07,0,0,1,326.9,406a10.86,10.86,0,0,1-5.21,1.51,11.79,11.79,0,0,1-9-3.76,11,11,0,0,1-2.75-9.3,10.14,10.14,0,0,1,8.31-8.19l.35.52a10.42,10.42,0,0,0-3.62,4.25l7.91-3.37v10.93l-6.34,2.66a7.86,7.86,0,0,0,1.7,1.29,8.31,8.31,0,0,0,5,1,8.91,8.91,0,0,0,3-.92v-6.09l-2.36-2.36,2.36-2.37v-4.43l-.5-.07c-1.6-.24-3.17-.7-4.76-1.06s-3.21-.84-4.84-1.17a4.61,4.61,0,0,0-2-.07,2.28,2.28,0,0,0-.91.41,1.82,1.82,0,0,0-.61.79,1.63,1.63,0,0,0,0,1.15,1.6,1.6,0,0,0,.78.84l-.34.52A4.14,4.14,0,0,1,311,386.53ZM314.52,398a8.51,8.51,0,0,0,1.37,2.53l2.36-1v-8.8l-3.74,1.58A9.4,9.4,0,0,0,314.52,398Z" transform="translate(-128.82 -379.2)"/><path class="cls-1" d="M344.83,404.24l-5.17,3.62-3.46-3.1-1.2.86-.52-.69,2.24-1.55v-9.49l-1.21-1.56-1.38.87-.51-.69,4.83-3.28,2.76,3.28v10.87l1.21,1.2,1.55-1ZM339,381.35l3.07,3.5-3.44,3-3.07-3.49Z" transform="translate(-128.82 -379.2)"/><path class="cls-1" d="M358.87,408.21l-3.56-3.11,1.51-1.38v-8.87l-2.5-2.27-1.57.95v10.19l1.55,1.38-3.45,3.11-4.14-3.28,1.38-1.21v-9.56l-1.38-1.55-1.38.86-.52-.69,5-3.45,2.64,2.95,4.73-2.95,3.58,3.09,5-3.09,3.74,3.22,1.17-.95.64.78-1.78,1.45v9l1.68,1.72,1.55-1.17,0,1.32-5.34,3.47-3.56-3.11,1.51-1.38v-8.87l-2.5-2.27L361,393.72v9.63l1.87,1.67Z" transform="translate(-128.82 -379.2)"/><path class="cls-1" d="M372.71,404.58l1.7-1.38v-9.49l8.63-4.48,3.62,5.52v.17l-7.76,4.83v1.55l4.31,2.94,4-3.11.52.87-7.42,6-5.34-4-1.59,1.29Zm10-8.11L379.59,392l-.69.39v6.49Z" transform="translate(-128.82 -379.2)"/><path class="cls-1" d="M401.53,393.16a8,8,0,0,1-1,1.72A9.52,9.52,0,0,1,399.4,396l3.1,2.3v5.43L395.39,408a3.4,3.4,0,0,0-1.64-1.47,2.8,2.8,0,0,0-1.1-.21,2,2,0,0,0-1.06.33,1.49,1.49,0,0,0-.49.62,1.16,1.16,0,0,0,0,.78,1,1,0,0,0,.45.52l-.35.95a3.54,3.54,0,0,1-1.95-1.89,4,4,0,0,1-.1-2.73,8.58,8.58,0,0,1,2.33-3.34l.89-.84-2.72-2.15v-5l7.44-4.32a3.79,3.79,0,0,0,1.48,1.3,2.68,2.68,0,0,0,1.18.27,1.86,1.86,0,0,0,1.14-.38,1.65,1.65,0,0,0,.62-1.12h1A12.17,12.17,0,0,1,401.53,393.16Zm-7,7q-1.21,1.05-2.37,2.16c-.36.35-.71.7-1,1.09a4.15,4.15,0,0,1,2.15-.84,4.53,4.53,0,0,1,2.32.45,4.77,4.77,0,0,1,2.23,2.31v-4.69l-2-1.59Zm3.86-4.64a9.23,9.23,0,0,0,1.26-1.24,4.59,4.59,0,0,0,.33-.44,3.92,3.92,0,0,1-1.25.37,4.19,4.19,0,0,1-2.24-.31,4.29,4.29,0,0,1-2.24-2.31v4.69l1.49,1.52Z" transform="translate(-128.82 -379.2)"/></svg>